<svg preserveAspectRatio="none" overflow="visible" style="display: block;" width="56" height="56" viewBox="0 0 56 56" fill="none" xmlns="http://www.w3.org/2000/svg">
<g id="Frame 219">
<rect x="1" y="1" width="54" height="54" rx="27" stroke="#E80036" stroke-width="2"/>
<path id="Arrow 4" transform="matrix(-1 0 0 1 56 0)" d="M37.0607 29.0607C37.6464 28.4749 37.6464 27.5251 37.0607 26.9393L27.5147 17.3934C26.9289 16.8076 25.9792 16.8076 25.3934 17.3934C24.8076 17.9792 24.8076 18.9289 25.3934 19.5147L33.8787 28L25.3934 36.4853C24.8076 37.0711 24.8076 38.0208 25.3934 38.6066C25.9792 39.1924 26.9289 39.1924 27.5147 38.6066L37.0607 29.0607ZM19 28L19 29.5L36 29.5L36 28L36 26.5L19 26.5L19 28Z" fill="#E80036"/>
</g>
</svg>
